<svg width="149" height="150" viewBox="0 0 149 150" fill="none" xmlns="http://www.w3.org/2000/svg">
<path d="M143.248 35.1859C138.285 34.3708 134.649 37.0794 131.845 40.7035C125.901 48.3654 124.002 57.5448 122.836 66.9498C123.99 75.2388 119.908 81.3458 114.795 87.1393C111.778 90.3772 109.458 94.2116 107.98 98.4008C106.502 102.59 105.899 107.043 106.208 111.48C106.403 115.305 107.044 119.093 108.119 122.766C108.348 123.335 108.531 123.922 108.665 124.521C108.765 125.349 109.211 126.452 108.293 126.929C107.176 127.506 106.469 126.377 106.06 125.675C105.047 123.936 104.215 122.095 103.578 120.182C99.8925 107.843 100.401 95.9424 108.219 85.1454C109.96 82.8545 111.833 80.6688 113.827 78.5995C117.55 74.6118 118.158 71.389 115.602 66.6739C109.137 54.7734 102.523 42.9356 95.9714 31.0727C91.6657 23.2603 87.2854 15.4729 83.0665 7.62283C81.6658 5.12096 79.7538 2.94933 77.4579 1.25248C71.8244 3.39683 70.447 6.10548 72.1718 11.7987C72.5343 13.0817 72.982 14.3386 73.5119 15.5607C76.0805 21.3166 78.7111 27.0474 81.2921 32.8032C84.8409 40.716 88.4642 48.5912 91.4051 56.7547C91.827 57.9335 92.9437 59.4007 90.9956 60.3913C88.6628 63.0122 86.8139 63.1502 84.4191 60.7926C80.6965 57.1435 78.3265 52.5287 75.6462 48.1648C68.5237 36.4775 61.5129 24.7776 54.6137 13.0652C52.951 10.2688 50.3948 9.10255 47.6897 7.97395C42.9373 10.2061 41.6716 12.8646 43.0365 17.8931C43.7457 20.2409 44.7156 22.4999 45.9277 24.6271C53.6955 39.2488 61.9472 53.5946 70.0748 68.0032C70.8497 68.9862 71.2424 70.2215 71.1791 71.4768C69.4668 75.6651 65.5208 75.314 63.126 72.3044C57.8275 65.5955 52.7028 58.7486 47.4664 52.0021C43.173 46.497 38.7804 41.0546 34.4746 35.5871C32.7351 33.3859 30.4361 31.7041 27.8237 30.7216C23.8405 32.7029 22.3515 35.9383 23.5923 40.1266C24.2587 42.2134 25.2606 44.1751 26.558 45.9327C34.7724 58.2219 42.9786 70.4986 51.1765 82.7628C51.9583 83.9165 53.2488 85.0576 52.3181 86.7631C50.4941 90.1614 47.0693 90.8386 44.1781 88.0171C40.4556 84.4181 37.0804 80.6059 33.6681 76.731C29.5857 72.1163 25.6398 67.3636 21.6318 62.6736C20.0559 60.8302 17.9092 60.0277 15.7501 59.0872C12.0276 61.0309 11.1093 63.0624 12.0276 66.9498C12.6084 69.0774 13.5855 71.0735 14.9064 72.8311C18.1574 77.496 21.396 82.1734 24.7587 86.7505C37.1673 103.692 49.5758 120.609 64.0442 135.895C73.8842 146.253 85.7344 151.031 99.9173 149.814C100.438 149.852 100.96 149.852 101.481 149.814C120.95 148.021 138.533 132.346 142.789 113.047C144.347 105.106 144.988 97.0099 144.7 88.92C144.588 78.2735 144.7 67.6019 146.338 57.0933C147.299 52.1819 147.995 47.2212 148.422 42.2334C148.77 38.1704 147.206 35.8379 143.248 35.1859Z" fill="#FEC928"/>
<path d="M122.858 66.9542C124.012 75.2431 119.929 81.3501 114.817 87.1436C111.796 90.3795 109.471 94.213 107.988 98.4022C106.506 102.591 105.899 107.046 106.205 111.484C106.4 115.309 107.041 119.097 108.116 122.77C108.345 123.339 108.527 123.926 108.662 124.526C108.761 125.353 109.208 126.457 108.29 126.933C107.173 127.51 106.466 126.381 106.056 125.679C105.043 123.94 104.212 122.099 103.575 120.187C99.8893 107.847 100.398 95.9468 108.215 85.1498C109.957 82.8589 111.83 80.6731 113.824 78.6039C117.547 74.6161 118.155 71.3934 115.599 66.6783C109.134 54.7778 102.52 42.94 95.9807 31.0771C91.6625 23.2646 87.2947 15.4773 83.0634 7.62721C81.6626 5.12534 79.7507 2.95371 77.4547 1.25686C82.1575 0.24112 84.7881 3.06263 86.8728 6.61146C91.5136 14.4365 96.0675 22.3241 100.671 30.1617C107.545 41.8657 114.428 53.5698 121.319 65.2738C121.728 65.8757 121.989 66.6783 122.858 66.9542Z" fill="#EDA703"/>
<path d="M99.9131 149.819C100.074 148.089 101.613 148.252 102.655 147.913C111.465 145.117 119.543 140.991 126.058 134.257C134.314 125.824 139.178 114.595 139.707 102.744C140.216 94.7435 139.807 86.768 140.129 78.7925C140.47 66.9598 142.877 55.2811 147.239 44.2949C147.582 43.5933 147.976 42.9184 148.418 42.2759C147.99 47.2638 147.295 52.2244 146.333 57.1359C144.671 67.6946 144.584 78.316 144.696 88.9625C144.984 97.0525 144.343 105.149 142.785 113.09C138.529 132.389 120.946 148.064 101.477 149.857C100.955 149.882 100.433 149.869 99.9131 149.819Z" fill="#EDA807"/>
<path d="M90.9932 60.2655C88.6604 62.8864 86.8115 63.0244 84.4167 60.6668C80.6941 57.0177 78.3241 52.4029 75.6438 48.039C68.5213 36.4353 61.5105 24.7772 54.6113 13.0648C52.9486 10.2684 50.3924 9.10215 47.6874 7.97354C50.4172 6.24302 52.9858 6.92018 55.4675 8.53785C57.5134 10.0364 59.2079 11.9715 60.4309 14.2059C68.9598 27.8412 77.4762 41.4973 85.9801 55.1743C87.2706 57.1807 88.5487 59.325 90.9932 60.2655Z" fill="#EDA805"/>
<path d="M71.1791 71.4768C69.4668 75.6651 65.5208 75.314 63.126 72.3044C57.8275 65.5955 52.7028 58.7486 47.4664 52.0021C43.173 46.497 38.7804 41.0546 34.4746 35.5871C32.7351 33.3859 30.4361 31.7041 27.8237 30.7216C31.5462 29.2544 35.1204 30.4839 38.4831 34.4842C41.6597 38.3214 44.6874 42.2339 47.8888 46.0963C54.0021 53.6203 60.1278 61.1443 66.2659 68.6684C67.5191 70.2233 68.7471 71.9282 71.1791 71.4768Z" fill="#EDA805"/>
<path d="M31.792 116.132C28.2967 115.068 25.0738 113.245 22.349 110.79C15.2543 104.46 10.3061 96.0384 8.2033 86.7133C7.83104 85.1082 8.31498 84.0423 9.77919 83.6285C11.2434 83.2146 11.7149 84.3432 12.1368 85.4844C16.182 96.4193 22.6965 105.398 32.4868 111.818C33.0963 112.083 33.5864 112.567 33.8617 113.177C34.137 113.787 34.1777 114.478 33.9759 115.117C33.6657 116.157 32.7722 116.195 31.792 116.132Z" fill="#B6CBCD"/>
<path d="M0.0136063 93.4325C-0.0732536 92.2537 0.23696 91.2505 1.49022 90.9245C3.09093 90.5733 3.59968 91.8524 3.97193 93.0061C6.15155 99.0266 9.35567 104.616 13.4397 109.521C16.5222 113.261 20.1548 116.501 24.2103 119.127C24.667 119.35 25.0701 119.67 25.3916 120.067C25.7131 120.463 25.9451 120.926 26.0716 121.422C26.3073 122.964 24.8307 123.93 22.9818 123.253C17.6566 121.292 12.9832 117.859 9.49374 113.346C5.20925 108.052 2.08012 101.903 0.311412 95.3009C0.171872 94.6853 0.0723906 94.0612 0.0136063 93.4325Z" fill="#B6CBCD"/>
<path d="M106.415 0C108.3 0.525512 110.063 1.42496 111.601 2.64595C120.138 8.67771 124.891 17.2551 127.534 27.2119C127.869 28.4659 128.068 29.7826 128.303 31.0742C128.398 31.3455 128.435 31.6339 128.412 31.9206C128.388 32.2073 128.306 32.4858 128.169 32.7379C128.031 32.99 127.843 33.21 127.616 33.3836C127.389 33.5572 127.129 33.6805 126.852 33.7453C125.437 34.134 124.804 33.2562 124.444 32.0022C122.437 24.9739 119.063 18.4212 114.517 12.7281C111.923 9.4338 108.882 6.52521 105.484 4.08806C104.991 3.80054 104.603 3.35906 104.379 2.82994C104.156 2.30082 104.108 1.71262 104.243 1.15368C104.454 0.0877803 105.323 0 106.415 0Z" fill="#B6CBCD"/>
<path d="M119.704 38.0495C119.808 38.5883 119.705 39.1466 119.417 39.612C119.13 40.0774 118.678 40.4152 118.153 40.5575C116.689 40.9588 116.081 39.9305 115.746 38.7768C114.229 33.4818 111.942 28.4442 108.959 23.8291C105.908 19.0178 102.004 14.8175 97.4435 11.4395C97.1594 11.2382 96.8936 11.0115 96.6494 10.7623C95.8801 9.94723 94.8874 9.10705 95.6691 7.8405C96.4508 6.57396 97.7041 6.7119 98.9077 7.23858C103.213 9.17766 106.99 12.1423 109.914 15.8787C114.917 22.0852 118.258 29.4862 119.618 37.3723C119.655 37.6231 119.692 37.899 119.704 38.0495Z" fill="#B6CBCD"/>
<path d="M52.3145 86.7529C50.4905 90.1512 47.0657 90.8284 44.1745 88.0069C40.452 84.4079 37.0768 80.5957 33.6645 76.7208C29.5821 72.1061 25.6362 67.3534 21.6282 62.6635C20.0523 60.8201 17.9056 60.0175 15.7465 59.077C19.2333 57.1709 22.0625 57.6349 25.0405 60.8326C30.1156 66.275 35.0915 71.8051 40.1542 77.2475C42.6228 79.9724 45.2764 82.5201 48.0956 84.8719C49.2513 85.9625 50.7384 86.6256 52.3145 86.7529Z" fill="#EDA805"/>
</svg>
